<svg width="35" height="28" viewBox="0 0 35 28" fill="none" xmlns="http://www.w3.org/2000/svg">
<path d="M28.875 24.5H6.125C5.64375 24.5 5.25 24.8937 5.25 25.375V27.125C5.25 27.6063 5.64375 28 6.125 28H28.875C29.3563 28 29.75 27.6063 29.75 27.125V25.375C29.75 24.8937 29.3563 24.5 28.875 24.5ZM32.375 7C30.9258 7 29.75 8.17578 29.75 9.625C29.75 10.0133 29.8375 10.3742 29.9906 10.7078L26.0312 13.0812C25.1891 13.5844 24.1008 13.3 23.6141 12.4469L19.157 4.64844C19.7422 4.16719 20.125 3.44531 20.125 2.625C20.125 1.17578 18.9492 0 17.5 0C16.0508 0 14.875 1.17578 14.875 2.625C14.875 3.44531 15.2578 4.16719 15.843 4.64844L11.3859 12.4469C10.8992 13.3 9.80547 13.5844 8.96875 13.0812L5.01484 10.7078C5.1625 10.3797 5.25547 10.0133 5.25547 9.625C5.25547 8.17578 4.07969 7 2.63047 7C1.18125 7 0 8.17578 0 9.625C0 11.0742 1.17578 12.25 2.625 12.25C2.76719 12.25 2.90938 12.2281 3.04609 12.2062L7 22.75H28L31.9539 12.2062C32.0906 12.2281 32.2328 12.25 32.375 12.25C33.8242 12.25 35 11.0742 35 9.625C35 8.17578 33.8242 7 32.375 7Z" fill="#F7CA2F"/>
</svg>
