<svg width="169" height="169" viewBox="0 0 169 169" fill="none" xmlns="http://www.w3.org/2000/svg">
<path d="M72.6364 59.9526V101.366C70.5601 99.8598 67.8985 98.9538 65 98.9538C58.3831 98.9538 53 103.674 53 109.477C53 115.279 58.3831 120 65 120C71.6169 120 77 115.279 77 109.477V73.5212L112.636 64.7232V91.4904C110.56 89.9847 107.898 89.0787 105 89.0787C98.3831 89.0787 93 93.7993 93 99.6018C93 105.404 98.3831 110.125 105 110.125C111.617 110.125 117 105.404 117 99.6018V49L72.6364 59.9526Z" fill="white"/>
<circle cx="84.5" cy="84.5" r="81" stroke="white" stroke-width="7"/>
</svg>
