<svg width="110" height="110" viewBox="0 0 110 110" fill="none" xmlns="http://www.w3.org/2000/svg">
<path d="M43.3654 35.8717V68.1421C41.7395 66.9688 39.6551 66.2628 37.3853 66.2628C32.2037 66.2628 27.9882 69.9412 27.9882 74.4627C27.9882 78.9842 32.2037 82.6626 37.3853 82.6626C42.567 82.6626 46.7825 78.9842 46.7825 74.4627V46.4449L74.6893 39.5892V60.4471C73.0635 59.2737 70.9791 58.5677 68.7093 58.5677C63.5276 58.5677 59.3121 62.2462 59.3121 66.7677C59.3121 71.2892 63.5276 74.9676 68.7093 74.9676C73.891 74.9676 78.1065 71.2892 78.1065 66.7677V27.3372L43.3654 35.8717Z" fill="black"/>
<circle cx="55" cy="55" r="51.5" stroke="black" stroke-width="7"/>
</svg>
